<?xml version="1.0" encoding="UTF-8"?>
<svg width="190px" height="65px" viewBox="0 0 190 65" version="1.1" xmlns="http://www.w3.org/2000/svg" xmlns:xlink="http://www.w3.org/1999/xlink">
    <!-- Generator: Sketch 50.2 (55047) - http://www.bohemiancoding.com/sketch -->
    <title>嘉里大通logo</title>
    <desc>Created with Sketch.</desc>
    <defs></defs>
    <g id="Page-1" stroke="none" stroke-width="1" fill="none" fill-rule="evenodd">
        <g id="Lego-Copy-2" transform="translate(-29.000000, -19.000000)" fill="#FFFFFF">
            <g id="嘉里大通logowhite" transform="translate(26.000000, 17.000000)">
                <g id="logo" transform="translate(3.633540, 2.413793)">
                    <path d="M20.1256742,38.3481646 L20.1256742,36.2442065 C20.1256742,35.7429551 20.4798294,35.3958102 21.0093757,35.3958102 L28.6473229,35.3958102 C29.1785557,35.3958102 29.5310245,35.7429551 29.5310245,36.2442065 L29.5310245,38.3481646 L20.1256742,38.3481646 Z M31.4889968,42.4198183 L31.4889968,36.0544123 C31.4889968,34.7242306 30.522659,33.7931034 29.1380808,33.7931034 L20.5186178,33.7931034 C19.1306667,33.7931034 18.1677019,34.7242306 18.1677019,36.0544123 L18.1677019,42.5057935 C18.1677019,43.0265109 18.6061797,43.4482759 19.1458448,43.4482759 C19.6888828,43.4482759 20.1256742,43.0265109 20.1256742,42.5057935 L20.1256742,39.9508713 L29.5310245,39.9508713 L29.5310245,42.5057935 L29.5360838,42.5057935 C29.5580077,43.0054227 29.9863669,43.4044772 30.5125403,43.4044772 C31.0370273,43.4044772 31.4637,43.0054227 31.4889968,42.5057935 L31.4889968,42.5025491 L31.4906832,42.4619948 L31.4889968,42.4198183 Z" id="Fill-231"></path>
                    <path d="M45.5073447,37.799468 L42.548931,37.799468 L40.6817908,37.799468 L38.3137106,37.799468 C37.6339839,37.799468 37.0841305,37.5467845 37.0841305,36.6175074 C37.0841305,35.6882303 37.6339839,35.4355467 38.3137106,35.4355467 L38.3153973,35.4355467 L47.3694249,35.4355467 C47.8281982,35.4355467 48.2026383,35.0664957 48.2026383,34.6126627 C48.2026383,34.1604921 47.8281982,33.7931034 47.3694249,33.7931034 L38.0623972,33.7931034 C36.4415104,33.7931034 35.1242236,34.3982141 35.1242236,36.6175074 C35.1242236,38.8368006 36.4415104,39.4419113 38.0623972,39.4419113 L41.0224975,39.4419113 L42.8896377,39.4419113 L45.2560313,39.4419113 C45.9374447,39.4419113 46.4872981,39.6962572 46.4872981,40.6238719 C46.4872981,41.5548114 45.9374447,41.807495 45.2560313,41.807495 L36.1767037,41.807495 C35.7179303,41.807495 35.3434903,42.176546 35.3434903,42.6270542 C35.3434903,43.0808872 35.7179303,43.4482759 36.1767037,43.4482759 L45.5073447,43.4482759 C47.1316048,43.4482759 48.447205,42.8431652 48.447205,40.6238719 C48.447205,38.4045787 47.1316048,37.799468 45.5073447,37.799468" id="Fill-232"></path>
                    <path d="M2.84070659,35.4352639 L12.4913493,35.4352639 C12.9518677,35.4352639 13.3229814,35.0662765 13.3229814,34.6141837 C13.3229814,34.1604288 12.9518677,33.7931034 12.4913493,33.7931034 L2.35151127,33.7931034 C0.964895586,33.7931034 0,34.7488143 0,36.111741 L0,41.1296383 C0,42.4942272 0.964895586,43.4482759 2.35151127,43.4482759 L2.35319815,43.4482759 L12.4913493,43.4482759 C12.9518677,43.4482759 13.3229814,43.0792884 13.3229814,42.6255335 C13.3229814,42.1751028 12.9518677,41.8061154 12.4913493,41.8061154 L2.84070659,41.8061154 C2.31102614,41.8044533 1.96015502,41.4504247 1.96015502,40.9384962 L1.96015502,39.4409389 L10.9242374,39.4409389 C11.3847558,39.4409389 11.7575564,39.0736135 11.7575564,38.6215207 C11.7575564,38.1677658 11.3847558,37.7987784 10.9242374,37.7987784 L1.96015502,37.7987784 L1.96015502,36.3028832 C1.96015502,35.7892925 2.31102614,35.4352639 2.84070659,35.4352639" id="Fill-233"></path>
                    <path d="M87.9968354,41.8061154 L80.3538289,41.8061154 C79.8276555,41.8061154 79.4735003,41.4504247 79.4735003,40.9384962 L79.4735003,36.3028832 C79.4735003,35.7909546 79.8276555,35.4352639 80.3555154,35.4352639 L87.9968354,35.4352639 C88.5263818,35.4352639 88.8788505,35.7909546 88.8788505,36.3028832 L88.8788505,40.9384962 C88.8788505,41.4504247 88.5263818,41.8061154 87.9968354,41.8061154 M88.4859069,33.7931034 L79.8664439,33.7931034 C78.4801793,33.7931034 77.515528,34.7471522 77.515528,36.111741 L77.515528,41.1296383 C77.515528,42.4942272 78.4801793,43.4482759 79.8664439,43.4482759 L79.8681304,43.4482759 L88.4859069,43.4482759 C89.8721716,43.4482759 90.8385093,42.4942272 90.8385093,41.1296383 L90.8385093,36.111741 C90.8385093,34.7471522 89.8721716,33.7931034 88.4859069,33.7931034" id="Fill-234"></path>
                    <path d="M161.505663,35.4352639 L171.154153,35.4352639 C171.61473,35.4352639 171.987578,35.0662765 171.987578,34.6141837 C171.987578,34.1604288 171.61473,33.7931034 171.154153,33.7931034 L161.013031,33.7931034 C159.627927,33.7931034 158.664596,34.7471522 158.664596,36.111741 L158.664596,41.1296383 C158.664596,42.4942272 159.627927,43.4482759 161.013031,43.4482759 L161.014718,43.4482759 L171.154153,43.4482759 C171.61473,43.4482759 171.987578,43.0792884 171.987578,42.6255335 C171.987578,42.1751028 171.61473,41.8061154 171.154153,41.8061154 L161.503975,41.8061154 C160.974228,41.8044533 160.623312,41.4504247 160.623312,40.9384962 L160.623312,36.3028832 C160.623312,35.7892925 160.975915,35.4352639 161.505663,35.4352639" id="Fill-235"></path>
                    <path d="M113.850004,32.5862069 C113.181766,32.5862069 112.639752,33.0545011 112.639752,33.6298797 L112.639752,41.1961082 C112.639752,41.7746833 113.181766,42.2413793 113.850004,42.2413793 C114.520097,42.2413793 115.062112,41.7746833 115.062112,41.1961082 L115.062112,33.6298797 C115.062112,33.0545011 114.520097,32.5862069 113.850004,32.5862069" id="Fill-236"></path>
                    <path d="M152.61055,32.5862069 C151.939115,32.5862069 151.397516,33.0545011 151.397516,33.6298797 L151.397516,41.1961082 C151.397516,41.7746833 151.939115,42.2413793 152.61055,42.2413793 C153.276421,42.2413793 153.819876,41.7746833 153.819876,41.1961082 L153.819876,33.6298797 C153.819876,33.0545011 153.276421,32.5862069 152.61055,32.5862069" id="Fill-237"></path>
                    <path d="M146.907257,33.7931034 L135.299399,33.7931034 C134.825505,33.7931034 134.440994,34.1630771 134.440994,34.622692 C134.440994,35.0790472 134.825505,35.4490209 135.299399,35.4490209 L140.00123,35.4490209 L140.00123,42.3839903 C140.00123,42.9739924 140.491988,43.4482759 141.102484,43.4482759 C141.711294,43.4482759 142.203739,42.9739924 142.203739,42.3839903 L142.203739,35.4490209 L146.907257,35.4490209 C147.379464,35.4490209 147.763975,35.0790472 147.763975,34.622692 C147.763975,34.1630771 147.379464,33.7931034 146.907257,33.7931034" id="Fill-238"></path>
                    <path d="M129.082147,37.799468 L126.122046,37.799468 L124.256593,37.799468 L121.886826,37.799468 C121.208786,37.799468 120.657246,37.5467845 120.657246,36.6175074 C120.657246,35.6882303 121.208786,35.4355467 121.886826,35.4355467 L130.944227,35.4355467 C131.404687,35.4355467 131.775754,35.0664957 131.775754,34.6126627 C131.775754,34.1604921 131.404687,33.7931034 130.944227,33.7931034 L121.637199,33.7931034 C120.012939,33.7931034 118.695652,34.3982141 118.695652,36.6175074 C118.695652,38.8368006 120.012939,39.4419113 121.637199,39.4419113 L124.595613,39.4419113 L126.46444,39.4419113 L128.830833,39.4419113 C129.512247,39.4419113 130.060413,39.6962572 130.060413,40.6238719 C130.060413,41.5548114 129.512247,41.807495 128.830833,41.807495 L128.829147,41.807495 L119.751506,41.807495 C119.289359,41.807495 118.918292,42.176546 118.918292,42.6270542 C118.918292,43.0808872 119.289359,43.4482759 119.751506,43.4482759 L129.082147,43.4482759 C130.708093,43.4482759 132.018634,42.8431652 132.018634,40.6238719 C132.018634,38.4045787 130.708093,37.799468 129.082147,37.799468" id="Fill-239"></path>
                    <path d="M186.005926,37.799468 L186.004239,37.799468 L183.045825,37.799468 L181.178685,37.799468 L178.808918,37.799468 C178.132565,37.799468 177.581025,37.5467845 177.581025,36.6175074 C177.581025,35.6882303 178.132565,35.4355467 178.808918,35.4355467 L178.812292,35.4355467 L187.866319,35.4355467 C188.328466,35.4355467 188.699533,35.0664957 188.699533,34.6126627 C188.699533,34.1604921 188.328466,33.7931034 187.866319,33.7931034 L178.559292,33.7931034 C176.938405,33.7931034 175.621118,34.3982141 175.621118,36.6175074 C175.621118,38.8368006 176.938405,39.4419113 178.559292,39.4419113 L178.560978,39.4419113 L181.517705,39.4419113 L183.388219,39.4419113 L185.754612,39.4419113 C186.436026,39.4419113 186.984193,39.6962572 186.984193,40.6238719 C186.984193,41.5548114 186.436026,41.807495 185.754612,41.807495 L185.752926,41.807495 L176.675285,41.807495 C176.213138,41.807495 175.840385,42.176546 175.840385,42.6270542 C175.840385,43.0808872 176.213138,43.4482759 176.675285,43.4482759 L186.005926,43.4482759 C187.626813,43.4482759 188.944099,42.8431652 188.944099,40.6238719 C188.944099,38.4045787 187.626813,37.799468 186.005926,37.799468" id="Fill-240"></path>
                    <path d="M97.31541,35.4352639 L106.960237,35.4352639 C107.420638,35.4352639 107.795031,35.0679386 107.795031,34.6141837 C107.795031,34.1604288 107.420638,33.7931034 106.960237,33.7931034 L96.8246521,33.7931034 C95.4383875,33.7931034 94.4720497,34.7488143 94.4720497,36.111741 L94.4720497,41.1296383 C94.4720497,42.4942272 95.4383875,43.4482759 96.8246521,43.4482759 L96.8263385,43.4482759 L105.444115,43.4482759 C106.828693,43.4482759 107.795031,42.4942272 107.795031,41.1296383 L107.795031,39.1434219 L107.789972,39.1434219 C107.725886,38.217629 106.983847,37.7239836 106.128815,37.699052 L106.128815,37.6973899 L106.059671,37.6973899 L100.808055,37.6973899 C100.345967,37.6973899 99.9766334,38.0630532 99.9766334,38.516808 C99.9766334,38.9689008 100.345967,39.3378883 100.808055,39.3378883 L105.150672,39.3378883 C105.562167,39.3378883 105.835372,39.6137979 105.835372,40.0127032 L105.835372,40.9384962 C105.835372,41.4504247 105.48459,41.8061154 104.955044,41.8061154 L97.3137236,41.8061154 C96.7841772,41.8044533 96.4333949,41.4504247 96.4333949,40.9384962 L96.4333949,36.3028832 C96.4333949,35.7892925 96.7841772,35.4352639 97.31541,35.4352639" id="Fill-241"></path>
                    <path d="M73.0141276,40.5381965 L73.012465,40.5381965 L64.8126841,40.5381965 L64.8110215,40.5381965 C64.2889755,40.5381965 63.941499,40.1910405 63.941499,39.68742 L63.941499,33.6504924 C63.941499,33.06375 63.4560294,32.5862069 62.8541801,32.5862069 C62.2573185,32.5862069 61.7701863,33.06375 61.7701863,33.6504924 L61.7701863,39.9693823 C61.7701863,41.3058511 62.7195121,42.2413793 64.0878049,42.2413793 L73.012465,42.2413793 L73.0141276,42.2413793 C73.4929469,42.2413793 73.8819876,41.8616266 73.8819876,41.3906028 C73.8819876,40.919579 73.4929469,40.5381965 73.0141276,40.5381965" id="Fill-242"></path>
                    <path d="M32.4475856,1.11076779 C31.8862029,0.0926971684 30.5763101,-0.294073776 29.5214407,0.247725192 L4.80735638,12.9296568 L4.80735638,2.32382212 C4.80735638,1.0404458 3.73261498,0 2.40285019,0 C1.0763974,0 0,1.0404458 0,2.32382212 L0,21.8173973 C0,23.0991754 1.0763974,24.1364248 2.40285019,24.1364248 C3.73261498,24.1364248 4.80735638,23.0991754 4.80735638,21.8173973 L4.80735638,17.662007 L12.9200808,13.4970274 L29.3574971,23.8007971 C30.3593746,24.4289003 31.7007314,24.1540053 32.3515378,23.1870779 C33.0023442,22.2185523 32.7175129,20.9239884 31.7156354,20.2958852 L17.2885982,11.2547148 L31.5550037,3.93483498 C32.6098732,3.39463424 33.0089682,2.12883842 32.4475856,1.11076779" id="Fill-243"></path>
                    <path d="M45.7276922,3.8989549 L69.4145189,3.8989549 C70.5455384,3.8989549 71.4596273,3.0272566 71.4596273,1.9518462 C71.4596273,0.873277465 70.5455384,0 69.4145189,0 L44.5271225,0 C41.1257843,0 38.757764,2.26609975 38.757764,5.50338511 L38.757764,17.4292285 C38.757764,20.6665139 41.1257843,22.9310345 44.5271225,22.9310345 L44.5337463,22.9310345 L69.4145189,22.9310345 C70.5455384,22.9310345 71.4596273,22.057757 71.4596273,20.9807674 C71.4596273,19.905357 70.5455384,19.0320796 69.4145189,19.0320796 L45.7227243,19.0320796 C44.427765,19.0289213 43.5666667,18.1856479 43.5666667,16.9681128 L43.5666667,13.4149947 L65.5693839,13.4149947 C66.6970914,13.4149947 67.6111804,12.5417172 67.6111804,11.4663068 C67.6111804,10.3877381 66.6970914,9.51603979 65.5693839,9.51603979 L43.5666667,9.51603979 L43.5666667,5.96134255 C43.5666667,4.74538659 44.429421,3.90053407 45.7276922,3.8989549" id="Fill-244"></path>
                    <path d="M187.732919,2.36799769 L187.732919,2.36636796 C187.732919,1.0593245 186.672177,0 185.365016,0 C184.054592,0 182.992218,1.0593245 182.992218,2.36636796 L182.992218,10.6470261 L161.896505,10.6470261 C160.621983,10.6437666 159.771757,9.77186108 159.771757,8.52022844 L159.771757,8.51696898 L159.771757,2.36636796 C159.771757,1.0593245 158.711015,0 157.402222,0 C156.09343,0 155.031056,1.0593245 155.031056,2.36636796 L155.031056,8.99122041 C155.031056,12.3321669 157.36632,14.6724592 160.719897,14.6724592 L160.724793,14.6724592 L182.992218,14.6724592 L182.992218,17.9889597 C182.992218,19.2405924 182.141992,20.1092385 180.869102,20.1141277 L158.942746,20.1141277 C157.829783,20.1141277 156.927336,21.0137386 156.927336,22.1252145 C156.927336,23.2366903 157.829783,24.137931 158.942746,24.137931 L182.040814,24.1363013 L182.04571,24.137931 C185.397655,24.137931 187.732919,21.7992685 187.732919,18.4566923 L187.732919,18.4550625 L187.732919,2.36799769 Z" id="Fill-245"></path>
                    <path d="M101.89853,14.1988788 C105.823667,14.1988788 109.006211,12.6784434 109.006211,7.0986246 C109.006211,1.52043543 105.823667,0 101.89853,0 L78.674119,0 C77.3668279,0 76.3043478,1.05925298 76.3043478,2.36457858 L76.3043478,21.7700932 C76.3043478,23.0770484 77.3668279,24.137931 78.674119,24.137931 C79.9830422,24.137931 81.0438902,23.0770484 81.0438902,21.7700932 L81.0438902,4.02353171 L101.185313,4.02353171 C102.887566,4.02353171 104.266669,4.68189818 104.266669,7.0986246 C104.266669,9.5137214 102.890831,10.1737175 101.191842,10.1753471 L87.1478464,10.1753471 C86.0364041,10.1753471 85.1354993,11.076527 85.1354993,12.1862982 C85.1354993,12.9815527 85.5990083,13.6692523 86.2697906,13.9935467 L86.2665265,13.9951763 L105.414017,23.8951177 C106.460176,24.4394107 107.74625,24.0336354 108.291363,22.989049 C108.834843,21.9460922 108.430089,20.660322 107.38393,20.1160289 L94.9948573,14.0326576 L101.895265,14.1988788 L101.89853,14.1988788 Z" id="Fill-246"></path>
                    <path d="M141.86421,14.1988788 C145.790979,14.1988788 148.975155,12.6784434 148.975155,7.0986246 C148.975155,1.52043543 145.790979,0 141.86421,0 L118.641431,0 C117.332508,0 116.273292,1.05925298 116.273292,2.36457858 L116.273292,21.7700932 C116.273292,23.0770484 117.332508,24.137931 118.641431,24.137931 C119.950354,24.137931 121.011202,23.0770484 121.011202,21.7700932 L121.011202,4.02353171 L141.152625,4.02353171 C142.85651,4.02353171 144.233981,4.68189818 144.233981,7.0986246 C144.233981,9.5137214 142.858143,10.1737175 141.162418,10.1753471 L127.118423,10.1753471 C126.003716,10.1753471 125.102811,11.076527 125.102811,12.1862982 C125.102811,12.9815527 125.56632,13.6692523 126.238735,13.9935467 L126.237103,13.9951763 L145.382961,23.8951177 C146.427488,24.4394107 147.715194,24.0336354 148.260307,22.989049 C148.802155,21.9460922 148.397401,20.660322 147.352874,20.1160289 L134.962169,14.0326576 L141.86421,14.1988788 Z" id="Fill-247"></path>
                    <g id="Group" transform="translate(0.000000, 49.482759)">
                        <path d="M79.39761,6.74215862 L77.817354,6.74215862 C77.956692,6.28558966 78.0829157,5.80548621 78.187829,5.30341724 L87.1529947,5.30341724 L87.1529947,3.84427931 L78.4320802,3.84427931 C78.5714181,2.81503793 78.6435459,1.69793448 78.6435459,0.475710345 L76.5026598,0.475710345 C76.5026598,1.7151931 76.4305319,2.83072759 76.2928333,3.84427931 L68.114517,3.84427931 L68.114517,5.30341724 L76.0289108,5.30341724 C74.9797783,9.95696897 72.1618737,12.2617793 67.6391288,15.0561069 L70.8357046,15.0561069 C73.7798329,13.2517966 76.1944771,11.1384 77.525564,7.60195172 C78.8943542,11.0834862 81.9286423,13.6252103 84.3990217,15.0561069 L87.6333007,15.0561069 C83.6515147,12.5034 80.6418156,10.2707621 79.39761,6.74215862" id="Fill-214"></path>
                        <path d="M105.943615,12.8330397 C105.687889,12.6855569 105.466587,12.5490569 105.338724,12.4737466 C105.853455,11.7018155 106.327204,10.9032121 106.592766,10.2599362 C106.969798,9.33581552 106.486213,8.65174655 105.538715,8.65174655 L103.774861,8.65174655 C104.366637,8.01003966 105.646907,6.67328103 106.230487,5.91076379 C106.62719,5.39771207 106.322286,4.48300517 105.492816,4.48300517 L101.683153,4.48300517 L101.683153,5.62050517 L104.461715,5.62050517 L104.5863,5.82760862 C103.717487,6.98236724 102.781464,7.87510862 102.040514,8.71450517 C101.692989,9.10831552 101.894619,9.79081552 102.614258,9.79081552 L104.771537,9.79081552 C104.915793,9.79081552 105.058409,9.9100569 104.986281,10.0999017 C104.389587,11.6829879 102.840477,13.4323845 101.427427,15.0562638 L103.412583,15.0562638 C103.68798,14.7346259 104.125665,14.183919 104.596135,13.5390741 C104.766619,13.6441948 105.082998,13.8387466 105.358396,13.998781 C106.509163,14.6640224 107.453382,15.0562638 109.245104,15.0562638 L120.279028,15.0562638 L120.965882,13.9171948 L109.217236,13.9171948 C107.761565,13.9171948 106.812428,13.3319707 105.943615,12.8330397" id="Fill-215"></path>
                        <path d="M109.744425,5.05552069 L112.850841,5.05552069 L112.850841,6.31853793 L109.269037,6.31853793 L109.269037,5.51052069 C109.269037,5.25948621 109.482142,5.05552069 109.744425,5.05552069 Z M118.493208,5.51052069 L118.493208,6.31853793 L114.754034,6.31853793 L114.754034,5.05552069 L118.017819,5.05552069 C118.280103,5.05552069 118.493208,5.25948621 118.493208,5.51052069 Z M114.754034,8.8179 L118.491568,8.8179 L118.491568,7.45917586 L114.754034,7.45917586 L114.754034,8.8179 Z M109.269037,8.8179 L112.850841,8.8179 L112.850841,7.45917586 L109.269037,7.45917586 L109.269037,8.8179 Z M109.269037,9.95696897 L112.850841,9.95696897 L112.850841,12.8768138 L114.754034,12.8768138 L114.754034,9.95696897 L118.493208,9.95696897 L118.493208,11.5212276 C118.493208,11.7722621 118.280103,11.9777966 118.017819,11.9777966 L115.986764,11.9777966 L116.571984,13.1152966 L118.637463,13.1152966 C119.480048,13.1152966 120.160345,12.4626069 120.160345,11.6577276 L120.160345,5.37402069 C120.160345,4.56914138 119.480048,3.91488276 118.637463,3.91488276 L114.832718,3.91488276 L114.540928,3.76426207 C115.81628,3.42222759 117.627673,2.89348621 118.876797,2.26433103 C119.612829,1.89248621 119.339071,0.566710345 118.440751,0.566710345 L108.098599,0.566710345 L108.098599,1.70577931 L116.637554,1.70577931 C116.234294,1.82502069 114.298317,2.55302069 113.25738,2.88250345 C113.106568,2.74129655 112.962312,2.59381379 112.827892,2.43064138 L110.239485,2.43064138 C110.929617,3.06764138 111.578768,3.53048621 112.127924,3.91488276 L109.124782,3.91488276 C108.283836,3.91488276 107.6019,4.56914138 107.6019,5.37402069 L107.6019,13.1152966 L109.269037,13.1152966 L109.269037,9.95696897 Z" id="Fill-216"></path>
                        <polygon id="Fill-217" points="11.2289094 0.475710345 9.08638397 0.475710345 9.08638397 1.12683103 0.635948918 1.12683103 0.635948918 2.2659 9.08638397 2.2659 9.08638397 2.94526207 1.58836459 2.94526207 1.58836459 4.08276207 18.7269288 4.08276207 18.7269288 2.94526207 11.2289094 2.94526207 11.2289094 2.2659 19.6793445 2.2659 19.6793445 1.12683103 11.2289094 1.12683103"></polygon>
                        <path d="M7.24368095,8.0309069 L13.1745586,8.0309069 C12.9844033,8.32430345 12.6680242,8.62554483 12.3663986,8.90795862 L7.89774954,8.90795862 L7.24368095,8.0309069 Z M3.58810963,6.66433793 L3.58810963,6.13873448 L3.82416446,5.91280345 L16.4875225,5.91280345 L16.7268559,6.13873448 L16.7268559,6.66433793 L16.4875225,6.89183793 L3.82416446,6.89183793 L3.58810963,6.66433793 Z M15.1810246,8.0309069 L17.5366551,8.0309069 C18.0612214,8.0309069 18.4890708,7.62297586 18.4890708,7.11933793 L18.4890708,5.68216552 C18.4890708,5.18166552 18.0612214,4.77216552 17.5366551,4.77216552 L2.77994969,4.77216552 C2.25210487,4.77216552 1.82753403,5.18166552 1.82753403,5.68216552 L1.82753403,7.11933793 C1.82753403,7.62297586 2.25210487,8.0309069 2.77994969,8.0309069 L5.25032906,8.0309069 L5.86833372,8.90795862 L0.635784991,8.90795862 L0.635784991,10.0470276 L3.7520366,10.0470276 C3.74547952,10.3074759 3.73236536,10.621269 3.70777632,10.8550448 L0.73578044,10.8550448 L0.73578044,11.9941138 L3.3684475,11.9941138 C2.65208666,13.4971828 1.09805903,14.4730793 0.398090892,15.0551655 L2.78322823,15.0551655 C3.37336531,14.488769 4.45856182,13.5081655 5.04050254,11.9941138 L7.78300067,11.9941138 C8.04528381,11.9941138 8.25838887,12.1980793 8.25838887,12.4506828 L8.25838887,13.4610966 C8.25838887,13.712131 8.04528381,13.9160966 7.78300067,13.9160966 L5.30934277,13.9160966 L5.90111911,15.0551655 L8.6403387,15.0551655 C9.29768583,15.0551655 9.92388683,14.4542517 9.92388683,13.8250966 L9.92388683,12.0851138 C9.92388683,11.4559586 9.29768583,10.8550448 8.6403387,10.8550448 L5.35360305,10.8550448 C5.39622406,10.5977345 5.42245237,10.3294414 5.43228799,10.0470276 L19.6775413,10.0470276 L19.6775413,8.90795862 L14.4253213,8.90795862 C14.6925222,8.71968276 14.9859515,8.40275172 15.1810246,8.0309069 Z" id="Fill-218"></path>
                        <path d="M17.6235364,13.4607828 C17.6235364,13.7118172 17.4120706,13.9157828 17.1481482,13.9157828 L13.3007823,13.9157828 C13.0384992,13.9157828 12.8253941,13.7118172 12.8253941,13.4607828 L12.8253941,12.450369 C12.8253941,12.1993345 13.0384992,11.995369 13.3007823,11.995369 L17.1481482,11.995369 C17.4120706,11.995369 17.6235364,12.1993345 17.6235364,12.450369 L17.6235364,13.4607828 Z M18.0054862,10.8563 L12.4467228,10.8563 C11.7893757,10.8563 11.1615354,11.4556448 11.1615354,12.0848 L11.1615354,13.9157828 C11.1615354,14.5449379 11.7893757,15.0548517 12.4467228,15.0548517 L18.0054862,15.0548517 C18.6628333,15.0548517 19.2890343,14.4539379 19.2890343,13.8247828 L19.2890343,12.0848 C19.2890343,11.4556448 18.6628333,10.8563 18.0054862,10.8563 Z" id="Fill-219"></path>
                        <path d="M37.9606435,7.58704655 C37.5672188,7.58704655 37.2475612,7.28109828 37.2475612,6.90297759 L37.2475612,5.55837414 L42.7210826,5.55837414 L42.7210826,7.58704655 L37.9606435,7.58704655 Z M37.9606435,2.11920172 L42.7210826,2.11920172 L42.7210826,4.19337414 L37.2475612,4.19337414 L37.2475612,2.80327069 C37.2475612,2.42515 37.5672188,2.11920172 37.9606435,2.11920172 Z M50.1010746,2.80327069 L50.1010746,4.19337414 L44.6242747,4.19337414 L44.6242747,2.11920172 L49.386353,2.11920172 C49.7797777,2.11920172 50.1010746,2.42515 50.1010746,2.80327069 Z M49.386353,7.58704655 L44.6242747,7.58704655 L44.6242747,5.55837414 L50.1010746,5.55837414 L50.1010746,6.90297759 C50.1010746,7.28109828 49.7797777,7.58704655 49.386353,7.58704655 Z M44.6242747,11.981719 L52.2436,11.981719 L52.2436,10.61515 L44.6242747,10.61515 L44.6242747,8.95361552 L50.1010746,8.95361552 C51.1534857,8.95361552 52.0059059,8.13775345 52.0059059,7.13204655 L52.0059059,2.57577069 C52.0059059,1.57006379 51.1534857,0.752632759 50.1010746,0.752632759 L37.2475612,0.752632759 C36.1967894,0.752632759 35.3427299,1.57006379 35.3427299,2.57577069 L35.3427299,7.13204655 C35.3427299,8.13775345 36.1967894,8.95361552 37.2475612,8.95361552 L42.7210826,8.95361552 L42.7210826,10.61515 L35.1050358,10.61515 L35.1050358,11.981719 L42.7210826,11.981719 L42.7210826,13.6887534 L34.1542594,13.6887534 L34.1542594,15.0553224 L53.1960157,15.0553224 L53.1960157,13.6887534 L44.6242747,13.6887534 L44.6242747,11.981719 Z" id="Fill-220"></path>
                        <path d="M104.282051,3.54445 L106.208193,3.54445 C106.208193,3.54445 104.595152,2.25946724 103.642736,0.475553448 L101.878882,0.475553448 C103.00506,2.70034655 104.282051,3.54445 104.282051,3.54445" id="Fill-221"></path>
                        <polygon id="Fill-222" points="180.41334 14.7623966 182.270633 14.7623966 182.270633 7.84168966 180.41334 7.84168966"></polygon>
                        <path d="M176.440734,8.80377931 C176.283364,13.5106759 173.921177,15.0545379 173.921177,15.0545379 L176.262054,15.0545379 C176.262054,15.0545379 178.296387,12.9552621 178.296387,8.80377931 L178.296387,7.84043448 L176.440734,7.84043448 C176.440734,7.84043448 176.452209,8.45233103 176.440734,8.80377931" id="Fill-223"></path>
                        <path d="M172.07831,3.93653448 L174.481479,3.93653448 C174.481479,3.93653448 173.138917,2.93239655 171.604561,0.626017241 L169.411218,0.626017241 C170.930821,2.912 172.07831,3.93653448 172.07831,3.93653448" id="Fill-224"></path>
                        <path d="M174.485577,7.95010517 C174.485577,7.95010517 172.980728,6.61805345 171.446371,4.44189828 L169.251389,4.44189828 C170.770992,6.72788103 172.007001,7.95010517 172.007001,7.95010517 L174.485577,7.95010517 Z" id="Fill-225"></path>
                        <path d="M172.69238,8.66225862 C171.194088,12.3885517 169.112215,15.0542241 169.112215,15.0542241 L171.505549,15.0542241 C171.505549,15.0542241 172.941549,13.0836034 174.84638,8.66225862 L172.69238,8.66225862 Z" id="Fill-226"></path>
                        <path d="M186.280122,13.0034293 L186.280122,7.84153276 L184.42119,7.84153276 L184.42119,13.1399293 C184.42119,14.2727224 185.227711,15.0540672 186.412903,15.0540672 L187.850543,15.0540672 L188.442319,13.6874983 L186.993205,13.6874983 C186.59978,13.6874983 186.280122,13.379981 186.280122,13.0034293" id="Fill-227"></path>
                        <path d="M176.005508,5.35409483 C175.082599,6.23899138 175.730111,7.05014655 176.654659,7.05014655 L184.542824,7.05014655 L185.201811,6.10876724 C185.74277,6.73478448 186.091934,7.05014655 186.091934,7.05014655 L188.442647,7.05014655 C188.442647,7.05014655 187.011564,5.99423276 185.595235,3.79925 L183.480578,3.79925 C183.975637,4.56176724 184.44119,5.18935345 184.842811,5.68043966 L178.143116,5.68043966 L180.765947,3.17009483 L188.203313,3.17009483 L188.203313,1.80352586 L182.888801,1.80352586 C182.619961,1.41442241 182.346203,0.970405172 182.079002,0.473043103 L179.739764,0.473043103 C180.005326,0.968836207 180.267609,1.41285345 180.516778,1.80352586 L174.884248,1.80352586 L174.884248,3.17009483 L178.328353,3.17009483 C177.790673,3.67373276 176.397293,4.97911207 176.005508,5.35409483" id="Fill-228"></path>
                        <path d="M141.193158,5.17633103 L143.347158,5.17633103 L143.347158,3.81133103 L141.193158,3.81133103 L141.193158,0.475710345 L139.289966,0.475710345 L139.289966,3.81133103 L137.904783,3.81133103 C137.965436,3.15864138 138.006418,2.41965862 138.006418,1.58967586 L136.319609,1.58967586 C136.319609,5.36617586 135.524564,7.25834828 135.524564,7.25834828 L137.209733,7.25834828 C137.209733,7.25834828 137.498244,6.55545172 137.729381,5.17633103 L139.289966,5.17633103 L139.289966,8.85555517 C137.862162,9.31996897 136.591728,9.67298621 135.634395,9.89107241 L135.634395,11.4176759 C136.49665,11.1839 137.89003,10.7963655 139.289966,10.3617621 L139.289966,15.0561069 L141.193158,15.0561069 L141.193158,9.7326069 C142.101313,9.41567586 142.89472,9.09717586 143.394697,8.8179 L143.394697,7.36346897 C142.650469,7.66471034 141.912797,7.94555517 141.193158,8.20286552 L141.193158,5.17633103 Z" id="Fill-229"></path>
                        <path d="M152.477562,2.70850517 L146.702415,2.70850517 C146.91716,2.04797069 147.102397,1.30428103 147.235178,0.475867241 L145.407392,0.475867241 C144.932004,4.20059138 142.648502,6.59483276 142.648502,6.59483276 L144.618904,6.59483276 C144.618904,6.59483276 145.427064,5.75700517 146.181128,4.07507414 L147.390909,4.07507414 C146.428657,8.33010862 143.558296,11.4664707 143.558296,11.4664707 L145.622137,11.4664707 C145.622137,11.4664707 147.920393,8.50740172 149.199023,4.07507414 L150.346512,4.07507414 C149.0269,10.7196431 144.96315,14.1180224 144.96315,14.1180224 L147.204032,14.1180224 C147.204032,14.1180224 150.703873,11.1919017 152.10217,4.08448793 C152.451334,4.13312586 152.715257,4.41397069 152.715257,4.7591431 L152.715257,13.0056259 C152.715257,13.3821776 152.395599,13.6881259 152.002174,13.6881259 L149.208859,13.6881259 L149.800635,15.0546948 L152.477562,15.0546948 C153.661115,15.0546948 154.620088,14.13685 154.620088,13.0056259 L154.620088,4.7591431 C154.620088,3.62635 153.661115,2.70850517 152.477562,2.70850517" id="Fill-230"></path>
                    </g>
                </g>
            </g>
        </g>
    </g>
</svg>